{"title":"Magic.Magic.2013.480p.WEBRip.x264-Fastbet99","uid":8802300,"size":892310759,"categoryP":"video","categoryS":"movies","magnet":"?xt=urn:btih:83f990c0167ac383adb6bd08b05fb3e1df815bd9&amp;dn=Magic.Magic.2013.480p.WEBRip.x264-Fastbet99&amp;tr=udp%3A%2F%2Ftracker.openbittorrent.com%3A80&amp;tr=udp%3A%2F%2Fopen.demonii.com%3A1337&amp;tr=udp%3A%2F%2Ftracker.coppersurfer.tk%3A6969&amp;tr=udp%3A%2F%2Fexodus.desync.com%3A6969","seeders":1,"leechers":0,"uploader":"Fastbet99","files":-1,"time":1376238953,"description":"Magic Magic (2013)\n\nIMDB Info\t\t\t\t : http://www.imdb.com/title/tt1929308/\n\nSource\t\t\t\t\t : 1080p-PublicHD (Thanks)\nComplete name                            : Magic.Magic.2013.480p.WEBRip.x264-Fastbet99.mp4\nFormat                                   : MPEG-4\nFormat profile                           : Base Media\nCodec ID                                 : isom\nFile size                                : 851 MiB\nDuration                                 : 1h 38mn\nOverall bit rate mode                    : Variable\nOverall bit rate                         : 1 213 Kbps\n\nVideo\nID                                       : 1\nFormat                                   : AVC\nFormat/Info                              : Advanced Video Codec\nFormat profile                           : &lt;a class=&quot;__cf_email__&quot; href=&quot;/cdn-cgi/l/email-protection&quot; data-cfemail=&quot;044c6d636c4448302a35&quot;&gt;[email&amp;#160;protected]&lt;/a&gt;&lt;script cf-hash='f9e31' type=&quot;text/javascript&quot;&gt;\n/* &lt;![CDATA[ */!function(){try{var t=&quot;currentScript&quot;in document?document.currentScript:function(){for(var t=document.getElementsByTagName(&quot;script&quot;),e=t.length;e--;)if(t[e].getAttribute(&quot;cf-hash&quot;))return t[e]}();if(t&amp;&amp;t.previousSibling){var e,r,n,i,c=t.previousSibling,a=c.getAttribute(&quot;data-cfemail&quot;);if(a){for(e=&quot;&quot;,r=parseInt(a.substr(0,2),16),n=2;a.length-n;n+=2)i=parseInt(a.substr(n,2),16)^r,e+=String.fromCharCode(i);e=document.createTextNode(e),c.parentNode.replaceChild(e,c)}}}catch(u){}}();/* ]]&gt; */&lt;/script&gt;\nFormat settings, CABAC                   : Yes\nFormat settings, ReFrames                : 4 frames\nCodec ID                                 : avc1\nCodec ID/Info                            : Advanced Video Coding\nDuration                                 : 1h 38mn\nBit rate                                 : 1 113 Kbps\nMaximum bit rate                         : 16.8 Mbps\nWidth                                    : 854 pixels\nHeight                                   : 352 pixels\nDisplay aspect ratio                     : 2.40:1\nFrame rate mode                          : Constant\nFrame rate                               : 23.976 fps\nColor space                              : YUV\nChroma subsampling                       : 4:2:0\nBit depth                                : 8 bits\nScan type                                : Progressive\nBits/(Pixel*Frame)                       : 0.154\nStream size                              : 780 MiB (92%)\nWriting library                          : x264 core 133 r2334 a3ac64b\n\n\nAudio\nID                                       : 2\nFormat                                   : AAC\nFormat/Info                              : Advanced Audio Codec\nFormat profile                           : LC\nCodec ID                                 : 40\nDuration                                 : 1h 38mn\nBit rate mode                            : Variable\nBit rate                                 : 96.0 Kbps\nMaximum bit rate                         : 140 Kbps\nChannel(s)                               : 2 channels\nChannel positions                        : Front: L R\nSampling rate                            : 48.0 KHz\nCompression mode                         : Lossy\nStream size                              : 67.1 MiB (8%)\nLanguage                                 : English\nEncoder\t\t\t\t\t : Fastbet99\n\nText #1\nID                                       : 3\nFormat                                   : Timed Text\nCodec ID                                 : tx3g\nDuration                                 : 1h 33mn\nBit rate mode                            : Variable\nBit rate                                 : 72 bps\nStream size                              : 49.1 KiB (0%)\nLanguage                                 : English\n\n\nText #2\nID                                       : 4\nFormat                                   : Timed Text\nCodec ID                                 : tx3g\nDuration                                 : 1h 33mn\nBit rate mode                            : Variable\nBit rate                                 : 51 bps\nStream size                              : 34.6 KiB (0%)\nLanguage                                 : Spanish\n\nText #3\nID                                       : 5\nFormat                                   : Timed Text\nCodec ID                                 : tx3g\nDuration                                 : 1h 33mn\nBit rate mode                            : Variable\nBit rate                                 : 59 bps\nStream size                              : 40.3 KiB (0%)\nLanguage                                 : Swedish\n\nText #4\nID                                       : 6\nFormat                                   : Timed Text\nCodec ID                                 : tx3g\nDuration                                 : 1h 32mn\nBit rate mode                            : Variable\nBit rate                                 : 54 bps\nStream size                              : 36.6 KiB (0%)\nLanguage                                 : Norwegian\n\n\nText #5\nID                                       : 7\nFormat                                   : Timed Text\nCodec ID                                 : tx3g\nDuration                                 : 1h 33mn\nBit rate mode                            : Variable\nBit rate                                 : 56 bps\nStream size                              : 38.1 KiB (0%)\nLanguage                                 : Danish\n\n\nText #6\nID                                       : 8\nFormat                                   : Timed Text\nCodec ID                                 : tx3g\nDuration                                 : 1h 32mn\nBit rate mode                            : Variable\nBit rate                                 : 59 bps\nStream size                              : 40.1 KiB (0%)\nLanguage                                 : Finnish\n\n\nText #7\nID                                       : 9\nFormat                                   : Timed Text\nCodec ID                                 : tx3g\nDuration                                 : 1h 33mn\nBit rate mode                            : Variable\nBit rate                                 : 59 bps\nStream size                              : 40.5 KiB (0%)\nLanguage                                 : Polish\n\nScreenshots\n &lt;a href=&quot;\nhttp://lookpic.com/O/i2/1068/jkVQj9Qn.jpeg&quot; rel=&quot;nofollow&quot; target=&quot;_NEW&quot;&gt;\nhttp://lookpic.com/O/i2/1068/jkVQj9Qn.jpeg&lt;/a&gt;\n\nStairway To heaven - Help People With Keep Seed As Long You Can","torrent":{"xt":"urn:btih:83f990c0167ac383adb6bd08b05fb3e1df815bd9","amp;dn":"Magic.Magic.2013.480p.WEBRip.x264-Fastbet99","amp;tr":["udp%3A%2F%2Ftracker.openbittorrent.com%3A80","udp%3A%2F%2Fopen.demonii.com%3A1337","udp%3A%2F%2Ftracker.coppersurfer.tk%3A6969","udp%3A%2F%2Fexodus.desync.com%3A6969"],"infoHash":"83f990c0167ac383adb6bd08b05fb3e1df815bd9","infoHashBuffer":{"type":"Buffer","data":[131,249,144,192,22,122,195,131,173,182,189,8,176,95,179,225,223,129,91,217]},"announce":[],"urlList":[]}}